<svg xmlns="http://www.w3.org/2000/svg" width="128" height="128" viewBox="0 0 128 128">

  <g transform="translate(64 64) scale(1.230769)">

    <!-- long beams (dark blue) -->

    <rect x="-7" y="-52" width="14" height="34" rx="7" fill="#385f9c"/>

    <rect x="-7" y="-52" width="14" height="34" rx="7" fill="#385f9c" transform="rotate(60)"/>

    <rect x="-7" y="-52" width="14" height="34" rx="7" fill="#385f9c" transform="rotate(120)"/>

    <rect x="-7" y="-52" width="14" height="34" rx="7" fill="#385f9c" transform="rotate(180)"/>

    <rect x="-7" y="-52" width="14" height="34" rx="7" fill="#385f9c" transform="rotate(240)"/>

    <rect x="-7" y="-52" width="14" height="34" rx="7" fill="#385f9c" transform="rotate(300)"/>



    <!-- short beams (light blue) -->

    <rect x="-6" y="-52" width="12" height="26" rx="6" fill="#58a7eb" transform="rotate(30)"/>

    <rect x="-6" y="-52" width="12" height="26" rx="6" fill="#58a7eb" transform="rotate(90)"/>

    <rect x="-6" y="-52" width="12" height="26" rx="6" fill="#58a7eb" transform="rotate(150)"/>

    <rect x="-6" y="-52" width="12" height="26" rx="6" fill="#58a7eb" transform="rotate(210)"/>

    <rect x="-6" y="-52" width="12" height="26" rx="6" fill="#58a7eb" transform="rotate(270)"/>

    <rect x="-6" y="-52" width="12" height="26" rx="6" fill="#58a7eb" transform="rotate(330)"/>

  </g>

</svg>
